<svg xmlns="http://www.w3.org/2000/svg" width="41.8" height="41.8" viewBox="0 0 41.8 41.8">
  <g id="real-estate" transform="translate(-1 -1)">
    <path id="Path_5748" data-name="Path 5748" d="M47.991,47.316H46.642v-18.2A2.023,2.023,0,0,0,44.62,27.09H37.2a2.023,2.023,0,0,0-2.023,2.023v18.2H33.832V21.023A2.023,2.023,0,0,0,31.81,19H23.045a2.023,2.023,0,0,0-2.023,2.023V47.316H19.674a.674.674,0,0,0,0,1.348H47.991a.674.674,0,0,0,0-1.348ZM25.742,41.923a.674.674,0,1,1-1.348,0V39.9a.674.674,0,0,1,1.348,0Zm0-4.045a.674.674,0,0,1-1.348,0V35.855a.674.674,0,0,1,1.348,0Zm0-4.045a.674.674,0,0,1-1.348,0V31.81a.674.674,0,1,1,1.348,0Zm0-4.045a.674.674,0,0,1-1.348,0V27.765a.674.674,0,1,1,1.348,0Zm0-4.045a.674.674,0,1,1-1.348,0V23.719a.674.674,0,0,1,1.348,0ZM28.1,41.923a.674.674,0,1,1-1.348,0V39.9a.674.674,0,1,1,1.348,0Zm0-4.045a.674.674,0,1,1-1.348,0V35.855a.674.674,0,0,1,1.348,0Zm0-4.045a.674.674,0,1,1-1.348,0V31.81a.674.674,0,1,1,1.348,0Zm0-4.045a.674.674,0,0,1-1.348,0V27.765a.674.674,0,1,1,1.348,0Zm0-4.045a.674.674,0,1,1-1.348,0V23.719a.674.674,0,0,1,1.348,0Zm2.36,16.181a.674.674,0,1,1-1.348,0V39.9a.674.674,0,1,1,1.348,0Zm0-4.045a.674.674,0,1,1-1.348,0V35.855a.674.674,0,1,1,1.348,0Zm0-4.045a.674.674,0,0,1-1.348,0V31.81a.674.674,0,1,1,1.348,0Zm0-4.045a.674.674,0,0,1-1.348,0V27.765a.674.674,0,1,1,1.348,0Zm0-4.045a.674.674,0,1,1-1.348,0V23.719a.674.674,0,0,1,1.348,0Zm8.765,16.181a.674.674,0,0,1-1.348,0V39.9a.674.674,0,1,1,1.348,0Zm0-4.045a.674.674,0,0,1-1.348,0V35.855a.674.674,0,1,1,1.348,0Zm0-4.045a.674.674,0,1,1-1.348,0V31.81a.674.674,0,1,1,1.348,0Zm2.36,8.09a.674.674,0,0,1-1.348,0V39.9a.674.674,0,1,1,1.348,0Zm0-4.045a.674.674,0,0,1-1.348,0V35.855a.674.674,0,1,1,1.348,0Zm0-4.045a.674.674,0,0,1-1.348,0V31.81a.674.674,0,1,1,1.348,0Zm2.36,8.09a.674.674,0,1,1-1.348,0V39.9a.674.674,0,1,1,1.348,0Zm0-4.045a.674.674,0,0,1-1.348,0V35.855a.674.674,0,1,1,1.348,0Zm0-4.045a.674.674,0,1,1-1.348,0V31.81a.674.674,0,1,1,1.348,0Z" transform="translate(-5.864 -5.864)" fill="#fccce1"/>
    <path id="Path_5749" data-name="Path 5749" d="M34.036,33.362H32.013V18.808a2.023,2.023,0,0,0-2.023-2.023H24.26a2.023,2.023,0,0,0-2.023,2.023v2.418H16.507a2.023,2.023,0,0,0-2.023,2.023V28.6L13.165,18.053a4.713,4.713,0,0,0-1.474-8.924l-.46-2.759a.665.665,0,0,0,.556-.651.674.674,0,0,0-.674-.674H9.765V1.674a.674.674,0,1,0-1.348,0V5.045H7.068a.674.674,0,0,0-.674.674.665.665,0,0,0,.556.651L6.49,9.129a4.713,4.713,0,0,0-1.474,8.924L3.1,33.362H1.674a.674.674,0,1,0,0,1.348H34.036a.674.674,0,0,0,0-1.348ZM8.313,6.394H9.868l.45,2.7H7.863ZM7.068,10.439h4.045a3.377,3.377,0,0,1,3.3,2.7H3.764a3.377,3.377,0,0,1,3.3-2.7Zm-3.3,4.045H14.417a3.377,3.377,0,0,1-3.3,2.7H7.068a3.377,3.377,0,0,1-3.3-2.7Zm.7,18.878,1.866-14.9a4.681,4.681,0,0,0,.742.067h4.045a4.68,4.68,0,0,0,.745-.067l1.862,14.9Zm17.777,0h-6.4v-2.7h6.4Zm0-4.045h-6.4v-2.7h6.4Zm0-4.045h-6.4V23.249a.674.674,0,0,1,.674-.674h5.056a.674.674,0,0,1,.674.674Zm8.427,8.09H23.586v-2.7h7.079Zm0-4.045H23.586v-2.7h7.079Zm0-4.045H23.586v-2.7h7.079Zm0-4.045H23.586V18.808a.674.674,0,0,1,.674-.674h5.731a.674.674,0,0,1,.674.674Z" fill="#7c34eb"/>
  </g>
</svg>
