<svg xmlns="http://www.w3.org/2000/svg" width="49.733" height="51.392" viewBox="0 0 49.733 51.392">
  <g id="international" transform="translate(-2 -1)">
    <path id="Path_5746" data-name="Path 5746" d="M52.081,28.947H47.329a8.123,8.123,0,0,1-7.305-4.515A9.774,9.774,0,0,0,31.235,19H24.362a.829.829,0,0,0-.821.711L18.568,54.525a.829.829,0,0,0,1.642.235l2.03-14.208h2.122a8.123,8.123,0,0,1,7.306,4.515A9.773,9.773,0,0,0,40.456,50.5h7.48a2.487,2.487,0,0,0,2.412-1.884l4.145-16.578a2.487,2.487,0,0,0-2.412-3.089ZM37.122,40.484a.829.829,0,0,1-1.088-.436c-2.293-5.35-9.294-6.963-9.367-6.977a.829.829,0,0,1,.359-1.619c.322.072,7.905,1.824,10.527,7.943a.829.829,0,0,1-.431,1.088Zm4.7,5.041a.829.829,0,0,1-.883-.773C40.152,32.9,29,25.574,28.887,25.5a.829.829,0,0,1,.9-1.4c.488.313,11.965,7.831,12.812,20.535a.829.829,0,0,1-.771.884Zm4.914-.736a.829.829,0,0,1-1.649-.183c.789-7.1-1.521-11.048-1.544-11.087a.829.829,0,0,1,1.422-.853c.108.177,2.621,4.471,1.771,12.121Z" transform="translate(-2.833 -3.08)" fill="#faa9cc" opacity="0.59"/>
    <path id="Path_5747" data-name="Path 5747" d="M22.722,1A20.722,20.722,0,1,0,43.445,21.722,20.722,20.722,0,0,0,22.722,1Zm0,1.658c3.532,0,6.671,4.459,8.175,10.776H14.546C16.051,7.117,19.191,2.658,22.722,2.658Zm-5.049.684C15.5,5.513,13.782,9.061,12.815,13.433H5.556A19.148,19.148,0,0,1,17.674,3.342Zm-2,22.111a2.9,2.9,0,1,1-2.9-2.9A2.9,2.9,0,0,1,15.677,25.452ZM3.658,21.722a18.969,18.969,0,0,1,1.191-6.631h7.644a39.26,39.26,0,0,0-.537,5.88,4.553,4.553,0,0,0-2.694,7.382H4.849a18.969,18.969,0,0,1-1.191-6.631Zm3.5,10.994a19.051,19.051,0,0,1-1.606-2.7H8.723a5.8,5.8,0,0,0-1.562,2.7Zm9.759,7.165a19.11,19.11,0,0,1-8.289-5.332v-.393a4.144,4.144,0,0,1,8.289,0Zm9.947.447a18.932,18.932,0,0,1-8.289,0V34.156a4.144,4.144,0,0,1,8.289,0ZM19.821,25.452a2.9,2.9,0,1,1,2.9,2.9A2.9,2.9,0,0,1,19.821,25.452ZM25.5,29.061a4.559,4.559,0,1,0-5.549,0,5.84,5.84,0,0,0-2.2,2.121,5.84,5.84,0,0,0-2.2-2.121,4.551,4.551,0,0,0-1.936-8.085,36.637,36.637,0,0,1,.584-5.885H31.247a36.638,36.638,0,0,1,.58,5.885,4.551,4.551,0,0,0-1.936,8.088A5.84,5.84,0,0,0,27.7,31.183,5.84,5.84,0,0,0,25.5,29.061Zm7.172-6.51a2.9,2.9,0,1,1-2.9,2.9A2.9,2.9,0,0,1,32.669,22.551Zm4.144,12a19.112,19.112,0,0,1-8.289,5.331V34.156a4.144,4.144,0,1,1,8.289,0Zm1.47-1.834a5.8,5.8,0,0,0-1.562-2.7h3.166a19.046,19.046,0,0,1-1.6,2.7Zm3.5-10.994A18.988,18.988,0,0,1,40.6,28.354H36.183a4.553,4.553,0,0,0-2.695-7.382,39.262,39.262,0,0,0-.536-5.88H40.6A18.988,18.988,0,0,1,41.787,21.722Zm-9.158-8.289c-.966-4.369-2.684-7.92-4.858-10.092A19.148,19.148,0,0,1,39.888,13.433Z" fill="#7c34eb"/>
  </g>
</svg>
