<svg xmlns="http://www.w3.org/2000/svg" width="44.2" height="43.484" viewBox="0 0 44.2 43.484">
  <g id="conversations" transform="translate(-1 -1.5)">
    <g id="Group_874" data-name="Group 874" transform="translate(13.832 18.515)">
      <path id="Path_5739" data-name="Path 5739" d="M42,48.26a6.409,6.409,0,0,0,4.31-2.395L42,43.172Z" transform="translate(-25.603 -30.48)" fill="#fccce1"/>
      <path id="Path_5740" data-name="Path 5740" d="M38.264,48.26V43.172l-4.31,2.693a6.409,6.409,0,0,0,4.31,2.395Z" transform="translate(-23.293 -30.48)" fill="#fccce1"/>
      <path id="Path_5741" data-name="Path 5741" d="M32,38.8a6.368,6.368,0,0,0,.642,2.77L37.7,38.406V32.427A6.423,6.423,0,0,0,32,38.8Z" transform="translate(-22.732 -27.395)" fill="#fccce1"/>
      <path id="Path_5742" data-name="Path 5742" d="M42,32.427v5.979l5.062,3.165A6.4,6.4,0,0,0,42,32.427Z" transform="translate(-25.603 -27.395)" fill="#fccce1"/>
      <path id="Path_5743" data-name="Path 5743" d="M48.229,25.368H21.139A2.139,2.139,0,0,0,19,27.507V46.042a2.139,2.139,0,0,0,2.139,2.139h15.47L41.737,51.6a1.426,1.426,0,0,0,2.214-1.186V48.181h4.277a2.139,2.139,0,0,0,2.139-2.139V27.507a2.139,2.139,0,0,0-2.139-2.139ZM34.684,44.616a7.842,7.842,0,1,1,7.842-7.842,7.842,7.842,0,0,1-7.842,7.842Z" transform="translate(-19 -25.368)" fill="#fccce1"/>
    </g>
    <path id="Path_5744" data-name="Path 5744" d="M31.486,17.522a3.921,3.921,0,1,0-4.772,0,5.023,5.023,0,0,0-1.891,1.824,5.023,5.023,0,0,0-1.891-1.824,3.921,3.921,0,1,0-4.772,0,5.023,5.023,0,0,0-1.891,1.824,5.023,5.023,0,0,0-1.891-1.824,3.921,3.921,0,1,0-4.772,0A4.99,4.99,0,0,0,7,21.9v4.277a.713.713,0,0,0,1.426,0V21.9a3.564,3.564,0,0,1,7.129,0v4.277a.713.713,0,0,0,1.426,0V21.9a3.564,3.564,0,0,1,7.129,0v4.277a.713.713,0,0,0,1.426,0V21.9a3.564,3.564,0,0,1,7.129,0v4.277a.713.713,0,0,0,1.426,0V21.9A4.99,4.99,0,0,0,31.486,17.522Zm-19.5-.609a2.5,2.5,0,1,1,2.5-2.5A2.5,2.5,0,0,1,11.99,16.913Zm8.555,0a2.5,2.5,0,1,1,2.5-2.5A2.5,2.5,0,0,1,20.545,16.913Zm8.555,0a2.5,2.5,0,1,1,2.5-2.5A2.5,2.5,0,0,1,29.1,16.913Z" transform="translate(-1.723 -2.581)" fill="#7c34eb"/>
    <path id="Path_5745" data-name="Path 5745" d="M34.506,1.5H3.139A2.139,2.139,0,0,0,1,3.639V26.451A2.139,2.139,0,0,0,3.139,28.59H7.416v3.564a.713.713,0,0,0,1.109.593l6.234-4.158H34.506a2.139,2.139,0,0,0,2.139-2.139V3.639A2.139,2.139,0,0,0,34.506,1.5Zm.713,24.951a.713.713,0,0,1-.713.713H14.545a.717.717,0,0,0-.4.12L8.842,30.823V27.877a.713.713,0,0,0-.713-.713H3.139a.713.713,0,0,1-.713-.713V3.639a.713.713,0,0,1,.713-.713H34.506a.713.713,0,0,1,.713.713Z" transform="translate(0)" fill="#7c34eb"/>
  </g>
</svg>
