<?xml version="1.0" ?><svg id="Layer_1" style="enable-background:new 0 0 100 100;" version="1.1" viewBox="0 0 100 100" xml:space="preserve" xmlns="http://www.w3.org/2000/svg" xmlns:xlink="http://www.w3.org/1999/xlink"><g><path d="M76.2,78.4h-50c-2.6,0-4.6-2.1-4.6-4.6V26.2c0-2.6,2.1-4.6,4.6-4.6h47.7c2.6,0,4.6,2.1,4.6,4.6v29.3l-0.9,0.1   c-5.6,0.7-9.9,5.6-9.9,11.3c0,4,2,7.6,5.4,9.7L76.2,78.4z M26.1,23.6c-1.5,0-2.6,1.2-2.6,2.6v47.6c0,1.5,1.2,2.6,2.6,2.6h43.6   c-2.5-2.5-4-5.9-4-9.5c0-6.4,4.6-11.9,10.8-13.1V26.2c0-1.5-1.2-2.6-2.6-2.6H26.1z"/></g><g><path d="M65,30.5c-0.6,0-1-0.4-1-1V15.8c0-0.6,0.4-1,1-1s1,0.4,1,1v13.8C66,30.1,65.6,30.5,65,30.5z"/></g><g><path d="M35,30.5c-0.6,0-1-0.4-1-1V15.8c0-0.6,0.4-1,1-1s1,0.4,1,1v13.8C36,30.1,35.6,30.5,35,30.5z"/></g><g><path d="M77.5,35.8h-55c-0.6,0-1-0.4-1-1s0.4-1,1-1h55c0.6,0,1,0.4,1,1S78.1,35.8,77.5,35.8z"/></g><g><path d="M79.1,80.3c-2.5,0-4.9-0.7-7-2c-4-2.5-6.4-6.7-6.4-11.4c0-6.7,5-12.4,11.6-13.3c0.6-0.1,1.2-0.1,1.7-0.1   c7.4,0,13.4,6,13.4,13.4C92.5,74.3,86.5,80.3,79.1,80.3z M79.1,55.5c-0.5,0-1,0-1.5,0.1c-5.6,0.7-9.9,5.6-9.9,11.3   c0,4,2,7.6,5.4,9.7c1.8,1.1,3.9,1.7,6,1.7c6.3,0,11.4-5.1,11.4-11.4C90.5,60.6,85.4,55.5,79.1,55.5z"/></g><g><path d="M77.2,73c-0.3,0-0.5-0.1-0.7-0.3l-5-5.2c-0.4-0.4-0.4-1,0-1.4c0.4-0.4,1-0.4,1.4,0l5,5.2c0.4,0.4,0.4,1,0,1.4   C77.7,72.9,77.5,73,77.2,73z"/></g><g><path d="M77.2,73c-0.3,0-0.5-0.1-0.7-0.3c-0.4-0.4-0.4-1,0.1-1.4l8.5-7.9c0.4-0.4,1-0.4,1.4,0.1c0.4,0.4,0.4,1-0.1,1.4l-8.5,7.9   C77.7,72.9,77.4,73,77.2,73z"/></g><g><path d="M64.8,51H35c-0.6,0-1-0.4-1-1s0.4-1,1-1h29.8c0.6,0,1,0.4,1,1S65.3,51,64.8,51z"/></g><g><path d="M64.8,46H45.1c-0.6,0-1-0.4-1-1s0.4-1,1-1h19.7c0.6,0,1,0.4,1,1S65.3,46,64.8,46z"/></g></svg>