<?xml version="1.0" ?><svg id="Layer_1" style="enable-background:new 0 0 50 50;" version="1.1" viewBox="0 0 50 50" xml:space="preserve" xmlns="http://www.w3.org/2000/svg" xmlns:xlink="http://www.w3.org/1999/xlink"><style type="text/css">
	.st0{fill:#414042;}
</style><g><path class="st0" d="M40.8,23.8c-1.9-2.2-7.1-3.7-10.9-2.5c-2.5-5.1-3.8-10-3.8-10l-2.5,1.9c0.5,3.2,2.5,6.8,4,8.9   c-0.9,0.4-2.1,1-3.6,2l1.5,2.1c0,0,4.9-3.2,9.7-1.9c0,0-7,3.6-7.3,10.1l-7.1,6.4l0.6,1.2l-2.8,2.4v2.3l3.5-3.3l0.5,1.1l8.5-7.9   c0,0,0.7-0.5,0.7-1.8s0.6-5.5,7.3-8C38.9,27,42.7,26.1,40.8,23.8z"/><path class="st0" d="M36.4,30.9l-2.5,1.6l0.2,5.7h-2.4l-2.2,3.6c0,0,4.2,0,6.2,0s1.8-2.2,1.8-2.2L36.4,30.9z"/><path class="st0" d="M39.9,28.4c0.8,5.2,5.6,11.4,5.6,11.4l1.8-1.3c-3.2-5.8-4.8-12.1-4.8-12.1L39.9,28.4z"/><ellipse class="st0" cx="44.8" cy="22.7" rx="2.5" ry="2.6"/><path class="st0" d="M15.7,19.5c0-1.2,0.6-5.3,7-7.6c0,0,3.6-0.9,1.8-3.1c-1.9-2.2-7.1-3.7-10.8-2.3c0,0-1.9,0.4-5.4,2.6l1.4,2   c0,0,4.7-3,9.3-1.8c0,0-6.8,3.5-7,9.7l-6.8,6.1l0.6,1.2L3,28.6v2.2l3.4-3.2l0.4,1.1l8.2-7.6C15,21.2,15.7,20.7,15.7,19.5z"/><path class="st0" d="M21.3,23.9l-1.1-8.3l-2.4,1.6l0.2,5.5h-2.3l-2.1,3.4c0,0,4,0,6,0C21.6,26.1,21.3,23.9,21.3,23.9z"/><ellipse class="st0" cx="28.3" cy="7.7" rx="2.4" ry="2.5"/></g></svg>